<svg width="524" height="524" viewBox="0 0 524 524" fill="none" xmlns="http://www.w3.org/2000/svg">
<rect width="524" height="524" rx="100" fill="#00F0FF"/>
<path fill-rule="evenodd" clip-rule="evenodd" d="M156.717 112.285C81.3939 188.036 76.1037 193.422 75.0579 195.414C73.6582 198.079 73.0351 200.506 73.0022 203.418C72.9667 206.571 73.3444 208.291 74.73 211.286C75.4356 212.812 76.4059 214.2 77.596 215.387L108.122 245.83C125.901 263.561 149.736 287.278 161.089 298.535C174.31 311.644 192.182 318.988 210.8 318.963L231.861 318.934C250.44 318.909 259.761 296.476 246.671 283.291L237.274 273.826C212.68 249.054 186.961 223.166 180.12 216.296C173.252 209.399 173.279 198.24 180.181 191.377L225.114 146.702C272.371 99.7153 302.447 70.041 313.444 59.552C314.032 58.9912 313.635 58.0002 312.822 58.0004L262.873 58.0087L252.254 58.0105C225.64 58.0149 200.125 68.6284 181.36 87.5009L156.717 112.285ZM242.311 204.223C242.394 204.466 279.607 242.022 329.962 292.683C341.309 304.099 351.854 314.734 353.396 316.317C354.949 317.912 354.93 320.459 353.353 322.03L332.11 343.189C279.738 395.353 236.046 438.662 222.913 451.428C217.88 456.322 221.336 464.856 228.357 464.867L261.146 464.919L278.761 464.946C300.784 464.981 321.909 456.217 337.441 440.603C438.288 339.22 447.656 329.734 448.689 327.955C450.081 325.558 450.794 323.135 450.965 320.222C451.151 317.056 450.602 314.427 449.124 311.404C447.789 308.675 452.743 313.702 386.343 247.68L371.628 233.049C352.891 214.418 327.542 203.961 301.119 203.961H292.297C260.101 203.961 242.253 204.054 242.311 204.223Z" fill="black"/>
</svg>
