<svg width="524" height="524" viewBox="0 0 524 524" fill="none" xmlns="http://www.w3.org/2000/svg">
<rect width="524" height="524" rx="100" fill="black"/>
<path fill-rule="evenodd" clip-rule="evenodd" d="M317.898 71.1526C350.584 79.9016 378.216 95.7157 404.497 120.72C427.028 142.159 450.194 175.836 444.728 179.21C443.583 179.918 421.24 190.061 395.077 201.753L363.628 215.805C354.001 220.107 342.701 217.768 335.573 209.997C316.054 188.722 296.774 180.198 268.163 180.198C230.96 180.198 196.61 204.048 184.712 238.139C179.195 253.943 179.776 282.017 185.948 297.803C200.731 335.616 244.071 359.945 283.634 352.64C307.463 348.239 331.541 333.079 342.129 315.811C344.952 311.207 348.186 307.811 349.315 308.266C354.717 310.44 443.283 350.516 444.924 351.529C449.428 354.31 429.67 384.654 410.547 404.326C379.236 436.537 340.62 456.612 296.959 463.376C275.35 466.723 236.339 464.693 215.92 459.157C146.12 440.232 92.4791 385.866 72.7398 314.043C66.4468 291.148 66.414 239.581 72.6782 216.814C92.514 144.717 147.572 88.9766 215.996 71.7207C240.195 65.6174 240.183 65.6194 272.321 66.2962C294.319 66.7597 306.219 68.0271 317.898 71.1526Z" fill="white"/>
<path d="M449 265.5C449 284.002 434.002 299 415.5 299C396.998 299 382 284.002 382 265.5C382 246.998 396.998 232 415.5 232C434.002 232 449 246.998 449 265.5Z" fill="#BF9E78"/>
</svg>
